<?xml version="1.0" encoding="UTF-8" standalone="no"?>
<svg
   xml:space="preserve"
   id="Layer_1"
   x="0"
   y="0"
   version="1.1"
   viewBox="0 0 341.20002 154.3"
   sodipodi:docname="Cloudflare.svg"
   width="341.20001"
   height="154.3"
   inkscape:version="1.4 (86a8ad7, 2024-10-11)"
   xmlns:inkscape="http://www.inkscape.org/namespaces/inkscape"
   xmlns:sodipodi="http://sodipodi.sourceforge.net/DTD/sodipodi-0.dtd"
   xmlns="http://www.w3.org/2000/svg"
   xmlns:svg="http://www.w3.org/2000/svg"><defs
     id="defs1" /><sodipodi:namedview
     id="namedview1"
     pagecolor="#ffffff"
     bordercolor="#000000"
     borderopacity="0.25"
     inkscape:showpageshadow="2"
     inkscape:pageopacity="0.0"
     inkscape:pagecheckerboard="0"
     inkscape:deskcolor="#d1d1d1"
     inkscape:zoom="2.1584833"
     inkscape:cx="-10.192342"
     inkscape:cy="119.29673"
     inkscape:window-width="1920"
     inkscape:window-height="1009"
     inkscape:window-x="2552"
     inkscape:window-y="-8"
     inkscape:window-maximized="1"
     inkscape:current-layer="Page-1" /><style
     id="style1">.st0{fill:#fff}</style><g
     id="Page-1"
     transform="translate(-421.7,-58.6)"><path
       id="flare"
       d="m 734.5,150.4 -40.7,-24.7 c -0.6,-0.1 -4.4,0.3 -6.4,-0.7 -1.4,-0.7 -2.5,-1.9 -3.2,-4 H 508.7 v 91.8 h 225.8 z"
       class="st0" /><path
       id="right-cloud"
       d="m 692.2,125.8 c -0.8,0 -1.5,0.6 -1.8,1.4 l -4.8,16.7 c -2.1,7.2 -1.3,13.8 2.2,18.7 3.2,4.5 8.6,7.1 15.1,7.4 l 26.2,1.6 c 0.8,0 1.5,0.4 1.9,1 0.4,0.6 0.5,1.5 0.3,2.2 -0.4,1.2 -1.6,2.1 -2.9,2.2 l -27.3,1.6 c -14.8,0.7 -30.7,12.6 -36.3,27.2 l -2,5.1 c -0.4,1 0.3,2 1.4,2 H 758 c 1.1,0 2.1,-0.7 2.4,-1.8 1.6,-5.8 2.5,-11.9 2.5,-18.2 0,-37 -30.2,-67.2 -67.3,-67.2 -1.1,0 -2.3,0 -3.4,0.1"
       style="fill:#fbae40" /><path
       id="left-cloud"
       d="m 656.4,204.6 c 2.1,-7.2 1.3,-13.8 -2.2,-18.7 -3.2,-4.5 -8.6,-7.1 -15.1,-7.4 L 516,176.9 c -0.8,0 -1.5,-0.4 -1.9,-1 -0.4,-0.6 -0.5,-1.4 -0.3,-2.2 0.4,-1.2 1.6,-2.1 2.9,-2.2 l 124.2,-1.6 c 14.7,-0.7 30.7,-12.6 36.3,-27.2 l 7.1,-18.5 c 0.3,-0.8 0.4,-1.6 0.2,-2.4 -8,-36.2 -40.3,-63.2 -78.9,-63.2 -35.6,0 -65.8,23 -76.6,54.9 -7,-5.2 -15.9,-8 -25.5,-7.1 -17.1,1.7 -30.8,15.4 -32.5,32.5 -0.4,4.4 -0.1,8.7 0.9,12.7 -27.9,0.8 -50.2,23.6 -50.2,51.7 0,2.5 0.2,5 0.5,7.5 0.2,1.2 1.2,2.1 2.4,2.1 h 227.2 c 1.3,0 2.5,-0.9 2.9,-2.2 z"
       style="fill:#f58220" /></g></svg>
